<svg width="96" height="96" viewBox="0 0 96 96" fill="none" xmlns="http://www.w3.org/2000/svg">
<g clip-path="url(#clip0_3989_14887)">
<g clip-path="url(#clip1_3989_14887)">
<path d="M49.3123 28.9126C39.4056 28.9126 31.3701 38.7065 31.3701 45.966V68.325C31.3701 70.3221 33.458 71.9373 36.0296 71.9373H62.5905C65.1665 71.9373 67.25 70.3186 67.25 68.325V42.0547C67.25 34.7952 59.2189 28.9126 49.3123 28.9126Z" fill="url(#paint0_linear_3989_14887)"/>
<path d="M49.3123 28.9126C39.4056 28.9126 31.3701 38.7065 31.3701 45.966V68.325C31.3701 70.3221 33.458 71.9373 36.0296 71.9373H62.5905C65.1665 71.9373 67.25 70.3186 67.25 68.325V42.0547C67.25 34.7952 59.2189 28.9126 49.3123 28.9126Z" fill="url(#paint1_radial_3989_14887)" fill-opacity="0.6"/>
<path d="M49.3123 28.9126C39.4056 28.9126 31.3701 38.7065 31.3701 45.966V68.325C31.3701 70.3221 33.458 71.9373 36.0296 71.9373H62.5905C65.1665 71.9373 67.25 70.3186 67.25 68.325V42.0547C67.25 34.7952 59.2189 28.9126 49.3123 28.9126Z" fill="url(#paint2_radial_3989_14887)" fill-opacity="0.6"/>
<path d="M44.8263 26.3349C37.3972 30.61 31.3726 38.4049 31.3726 47.5224L31.3701 68.531C31.3701 71.9378 35.6003 72.5056 37.5563 71.37L54.7853 61.1393C56.715 60.0289 58.28 57.6036 58.28 55.721V39.5732C58.28 29.3527 52.2555 22.0623 44.8263 26.3349Z" fill="url(#paint3_radial_3989_14887)"/>
<path d="M44.8263 26.3349C37.3972 30.61 31.3726 38.4049 31.3726 47.5224L31.3701 68.531C31.3701 71.9378 35.6003 72.5056 37.5563 71.37L54.7853 61.1393C56.715 60.0289 58.28 57.6036 58.28 55.721V39.5732C58.28 29.3527 52.2555 22.0623 44.8263 26.3349Z" fill="url(#paint4_radial_3989_14887)" fill-opacity="0.25"/>
<path d="M44.8263 26.3349C37.3972 30.61 31.3726 38.4049 31.3726 47.5224L31.3701 68.531C31.3701 71.9378 35.6003 72.5056 37.5563 71.37L54.7853 61.1393C56.715 60.0289 58.28 57.6036 58.28 55.721V39.5732C58.28 29.3527 52.2555 22.0623 44.8263 26.3349Z" fill="url(#paint5_radial_3989_14887)" fill-opacity="0.25"/>
<path d="M44.8263 26.3349C37.3972 30.61 31.3726 38.4049 31.3726 47.5224L31.3701 68.531C31.3701 71.9378 35.6003 72.5056 37.5563 71.37L54.7853 61.1393C56.715 60.0289 58.28 57.6036 58.28 55.721V39.5732C58.28 29.3527 52.2555 22.0623 44.8263 26.3349Z" fill="url(#paint6_radial_3989_14887)" fill-opacity="0.25"/>
<path d="M44.8263 26.3349C37.3972 30.61 31.3726 38.4049 31.3726 47.5224L31.3701 68.531C31.3701 71.9378 35.6003 72.5056 37.5563 71.37L54.7853 61.1393C56.715 60.0289 58.28 57.6036 58.28 55.721V39.5732C58.28 29.3527 52.2555 22.0623 44.8263 26.3349Z" fill="url(#paint7_linear_3989_14887)" fill-opacity="0.6"/>
<path d="M39.6838 24.2254C34.0537 26.2964 28.7528 35.602 28.7528 45.7418L28.75 54.8285C28.75 57.0611 30.4477 57.8033 32.541 56.4865L41.8888 50.7468C44.5356 49.1216 46.1623 46.1446 46.1623 42.926V33.5881C46.1623 26.6417 43.497 22.8227 39.6838 24.2254Z" fill="url(#paint8_radial_3989_14887)"/>
<path d="M39.6838 24.2254C34.0537 26.2964 28.7528 35.602 28.7528 45.7418L28.75 54.8285C28.75 57.0611 30.4477 57.8033 32.541 56.4865L41.8888 50.7468C44.5356 49.1216 46.1623 46.1446 46.1623 42.926V33.5881C46.1623 26.6417 43.497 22.8227 39.6838 24.2254Z" fill="url(#paint9_radial_3989_14887)"/>
</g>
</g>
<defs>
<linearGradient id="paint0_linear_3989_14887" x1="64.4154" y1="44.3748" x2="32.3268" y2="74.4062" gradientUnits="userSpaceOnUse">
<stop offset="0.716383" stop-color="#1657F4"/>
</linearGradient>
<radialGradient id="paint1_radial_3989_14887" cx="0" cy="0" r="1" gradientUnits="userSpaceOnUse" gradientTransform="translate(47.5989 50.3373) rotate(25.3691) scale(27.0744 51.8074)">
<stop offset="0.29954" stop-color="#003375"/>
<stop offset="0.620013" stop-color="#003375" stop-opacity="0.1"/>
</radialGradient>
<radialGradient id="paint2_radial_3989_14887" cx="0" cy="0" r="1" gradientUnits="userSpaceOnUse" gradientTransform="translate(47.5989 50.3373) rotate(25.3691) scale(27.0744 26.1205)">
<stop offset="0.29954" stop-color="#003375"/>
<stop offset="0.692076" stop-color="#003375" stop-opacity="0.1"/>
</radialGradient>
<radialGradient id="paint3_radial_3989_14887" cx="0" cy="0" r="1" gradientUnits="userSpaceOnUse" gradientTransform="translate(49.4227 25.0898) rotate(101.497) scale(28.1579 31.4178)">
<stop stop-color="#66DFFF"/>
<stop offset="1" stop-color="#0296E6"/>
</radialGradient>
<radialGradient id="paint4_radial_3989_14887" cx="0" cy="0" r="1" gradientUnits="userSpaceOnUse" gradientTransform="translate(37.559 38.9845) scale(13.8528 21.7184)">
<stop/>
<stop offset="1" stop-opacity="0"/>
</radialGradient>
<radialGradient id="paint5_radial_3989_14887" cx="0" cy="0" r="1" gradientUnits="userSpaceOnUse" gradientTransform="translate(43.0291 38.6297) rotate(-3.00477) scale(7.25706 20.0618)">
<stop/>
<stop offset="1" stop-opacity="0"/>
</radialGradient>
<radialGradient id="paint6_radial_3989_14887" cx="0" cy="0" r="1" gradientUnits="userSpaceOnUse" gradientTransform="translate(33.0835 55.2378) rotate(63.414) scale(7.14305 15.943)">
<stop/>
<stop offset="1" stop-opacity="0"/>
</radialGradient>
<linearGradient id="paint7_linear_3989_14887" x1="45.4445" y1="66.5939" x2="36.8587" y2="55.1593" gradientUnits="userSpaceOnUse">
<stop stop-color="#0086E2"/>
<stop offset="1" stop-color="#0086E2" stop-opacity="0"/>
</linearGradient>
<radialGradient id="paint8_radial_3989_14887" cx="0" cy="0" r="1" gradientUnits="userSpaceOnUse" gradientTransform="translate(43.7081 25.5786) rotate(118.32) scale(38.3514 37.9639)">
<stop stop-color="#9DEAFF"/>
<stop offset="0.793212" stop-color="#29C3FF"/>
</radialGradient>
<radialGradient id="paint9_radial_3989_14887" cx="0" cy="0" r="1" gradientUnits="userSpaceOnUse" gradientTransform="translate(44.5341 33.4054) rotate(4.56082) scale(21.2439 50.1318)">
<stop offset="0.53328" stop-color="#2BC3FF" stop-opacity="0"/>
<stop offset="0.80216" stop-color="#9DEAFF"/>
</radialGradient>
<clipPath id="clip0_3989_14887">
<rect width="48" height="48" fill="white" transform="translate(24 24)"/>
</clipPath>
<clipPath id="clip1_3989_14887">
<rect width="48" height="48" fill="white" transform="translate(24 24)"/>
</clipPath>
</defs>
</svg>
