<svg xmlns="http://www.w3.org/2000/svg" width="271.63889mm" height="271.63889mm" viewBox="0 0 770 770">
  <defs>
    <style>
      .b41e4fd8-448d-4ea6-9d8a-15259a935c64 {
        fill: #fff;
      }

      .b82655fc-a7bf-4e16-b155-d985e6aaa6d6 {
        fill: #005484;
      }

      .f7dd8f23-6f1e-4d0c-9504-47f5b595cb48 {
        fill: #1d1d1b;
      }

      .f36bea4f-822c-4dc6-bf4f-24e0d8384596 {
        fill: #b11e29;
      }
    </style>
  </defs>
  <g id="a7419d43-ba36-4efe-b6e1-85f5db4cc6ec" data-name="Layer 2">
    <g id="fc491c1d-e375-4057-a05f-2016b626e632" data-name="Layer 1">
      <g>
        <g>
          <circle class="b41e4fd8-448d-4ea6-9d8a-15259a935c64" cx="385" cy="385" r="375"/>
          <path class="b82655fc-a7bf-4e16-b155-d985e6aaa6d6" d="M385,10c207.10681,0,375,167.89319,375,375S592.10681,760,385,760,10,592.10681,10,385,177.89319,10,385,10m0-10A385.09893,385.09893,0,0,0,235.13754,739.74072a385.09713,385.09713,0,0,0,299.725-709.48143A382.59956,382.59956,0,0,0,385,0Z"/>
        </g>
        <g id="ac91b808-4f16-46e0-920e-539dd177a802" data-name="Text">
          <g>
            <path class="b82655fc-a7bf-4e16-b155-d985e6aaa6d6" d="M41.08789,315.51172,45.272,297.04785q1.79077-7.90137,4.97266-11.20312a7.96073,7.96073,0,0,1,8.00488-2.208l-2.46,10.85351a2.392,2.392,0,0,0-2.40918.50391,9.41944,9.41944,0,0,0-1.53271,3.98047l-3.83594,16.92578a8.3942,8.3942,0,0,0-.17676,3.78516,2.57405,2.57405,0,0,0,2.18408,1.82812,2.39538,2.39538,0,0,0,2.70069-.78613,10.38493,10.38493,0,0,0,1.24218-3.47852l4.79786-18.5q1.77172-7.81786,4.10107-10.30761,2.93189-3.13917,9.169-1.72559,5.42284,1.229,7.05273,4.94336,1.63036,3.71339-.13232,11.49023l-4.7212,20.834q-1.78125,7.86034-4.72412,10.49414-2.94286,2.63526-7.9331,1.50293L63.89014,325.751a2.33946,2.33946,0,0,0,2.32666-.916,7.47267,7.47267,0,0,0,1.57812-3.40234l3.81641-16.8418a13.09777,13.09777,0,0,0,.4209-5.19531,2.71974,2.71974,0,0,0-2.29053-2.13672,3.029,3.029,0,0,0-3.03662.71094q-1.31763,1.36377-2.24121,5.43847L60.2793,319.42383q-2.064,9.10693-4.31983,11.70019-2.66748,3.0674-8.6333,1.71582-5.29027-1.19823-6.69238-5.167Q39.23193,323.70458,41.08789,315.51172Z"/>
            <path class="b82655fc-a7bf-4e16-b155-d985e6aaa6d6" d="M68.88623,230.2998l6.43311,2.59571-6.78028,16.80566,25.27735,10.19824-3.84473,9.5293L64.69434,259.23047l-6.7959,16.8457-6.4336-2.5957Z"/>
            <path class="b82655fc-a7bf-4e16-b155-d985e6aaa6d6" d="M82.82373,205.61816l8.56055-13.90722,40.74267-.957-6.30322,10.23925-9.769.19629L102.353,223.44824l4.24756,8.77344-6.3252,10.27637Zm9.93945-3.94531-.26806.43555L98.876,216.05078l9.0083-14.63379Z"/>
            <path class="b82655fc-a7bf-4e16-b155-d985e6aaa6d6" d="M160.42188,148.99805l5.28906,4.71386-6.86328,7.70411-3.96875-3.53516q-3.63574-3.24024-8.34375,2.04394l-13.53223,15.18555,7.60449,6.77539-6.92236,7.76758-25.5293-22.74805,21.30371-23.9082q5.61694-6.30323,9.88819-7.35254,4.26855-1.0481,8.72461,2.9209l1.76757,1.57422a12.36385,12.36385,0,0,1,3.04493,3.627,5.48163,5.48163,0,0,1,.13476,3.77637,4.82345,4.82345,0,0,1,3.43945-.791A8.35558,8.35558,0,0,1,160.42188,148.99805Zm-18.11133-1.7461-.51758-.46093a3.15122,3.15122,0,0,0-2.82227-1.001,7.40533,7.40533,0,0,0-3.27148,2.48144l-14.6377,16.42676,5.76709,5.13867,14.80811-16.61816a6.93442,6.93442,0,0,0,1.96484-3.35937A3.07494,3.07494,0,0,0,142.31055,147.252Z"/>
            <path class="b82655fc-a7bf-4e16-b155-d985e6aaa6d6" d="M148.42773,123.37061l34.2168-27.80518,4.3125,5.30762-26.1748,21.2705,3.97168,4.88721,25.34765-20.59814,4.3125,5.30713-25.34765,20.59863,8.96679,11.03467-8.041,6.53418Z"/>
            <path class="b82655fc-a7bf-4e16-b155-d985e6aaa6d6" d="M191.1123,90.03027l8.89747-5.31006,14.01855,23.49024,22.77441-13.59229,3.50489,5.87256-31.67188,18.90186Z"/>
            <path class="b82655fc-a7bf-4e16-b155-d985e6aaa6d6" d="M232.544,65.99658l40.77246-16.77881L275.919,55.542,244.64941,68.41016l2.39747,5.82373L277.29,61.7876l2.60254,6.32422L249.64941,80.55811l2.80762,6.8247,31.26953-12.86816,2.60254,6.32422L245.55664,97.61768Z"/>
            <path class="b82655fc-a7bf-4e16-b155-d985e6aaa6d6" d="M284.51367,45.69678l42.93555-10.019,1.55469,6.65967L296.0752,50.02148l1.43066,6.13282,31.84961-7.43213,1.55371,6.65967-31.84961,7.43261L300.7373,70.001,333.666,62.31689l1.55371,6.66016-42.93555,10.019Z"/>
            <path class="b82655fc-a7bf-4e16-b155-d985e6aaa6d6" d="M382.84961,30.90674l.501,6.91894-18.0752,1.30811,1.96777,27.186-10.25.7417-1.96679-27.186L336.90918,41.187l-.501-6.91894Z"/>
            <path class="b82655fc-a7bf-4e16-b155-d985e6aaa6d6" d="M439.99316,70.62109q-11.67773-2.2705-15.1582-5.9292-3.48046-3.65844-1.86523-11.96582l.82617-4.25q1.85889-9.5625,6.57617-11.70312,4.38575-2.00391,16.52441.356l8.999,1.74951q12.59766,2.44922,16.21289,5.417t2.23828,10.04883L463.9248,52.31836a3.02111,3.02111,0,0,0-1.13671-3.31592q-2.02-1.45752-8.79981-2.77588l-7.86816-1.53027q-7.03272-1.36669-9.05078-.48145-2.01856.88623-3.042,6.15039l-.71289,3.67041q-.939,4.82959.62793,6.48731,1.56738,1.6582,8.18067,2.94385l8.3291,1.61914q6.78077,1.31835,8.88183.8999,2.10205-.41821,2.64649-3.21973l10.46387,2.03467q-1.35205,6.95434-5.42579,8.46826-4.63184,1.70581-17.77441-.84961Z"/>
            <path class="b82655fc-a7bf-4e16-b155-d985e6aaa6d6" d="M501.50977,88.17285l-8.51368-3.28418Q481.37988,80.407,478.66992,76.356q-2.71143-4.05175.47754-12.314l1.48731-3.85595q3.435-8.90479,8.24218-10.34668,4.80615-1.44067,16.62207,3.11669l8.5127,3.28418q12.37207,4.7732,15.18457,9.15381,2.811,4.38061-.57129,13.14795l-1.4873,3.856q-3.34717,8.67554-8.14161,9.67334Q514.2002,93.06885,501.50977,88.17285Zm9.24414-24.91015-7.16016-2.76221q-6.76466-2.60963-9.0957-1.95361-2.3335.65625-4.21,5.52148l-1.27442,3.30518q-1.66552,4.31542-.37012,6.29052,1.29346,1.9768,7.73829,4.4624l7.67871,2.96192Q511.14013,83.82032,513.5,83.333q2.3584-.48707,4.12988-5.07764l1.27539-3.30517q1.85889-4.81935.45411-6.86475Q517.95459,66.04053,510.75391,63.2627Z"/>
            <path class="b82655fc-a7bf-4e16-b155-d985e6aaa6d6" d="M545.43652,68.981l13.37207,8.61084,1.34766,30.82861,29.01758-11.27588,13.01365,8.38037-18.51268,28.749L574.999,128.687l13.61133-21.13769-28.66894,11.44189-9.39258-6.04834-1.43653-30.769-13.585,21.09668L526.92383,97.73Z"/>
            <path class="b82655fc-a7bf-4e16-b155-d985e6aaa6d6" d="M612.63574,114.231l11.06641,11.42334-5.69141,30.3291,30.82031-4.38867,10.76954,11.11718-24.55957,23.792-7.17969-7.41211L645.919,161.59863l-30.51856,4.63086-7.77344-8.02441,5.5918-30.29053-18.02246,17.4585-7.12012-7.34961Z"/>
            <path class="b82655fc-a7bf-4e16-b155-d985e6aaa6d6" d="M676.81836,189.002l8.71777,13.80957L668.459,239.81445l-6.41894-10.168,4.125-8.85742-13.9541-22.10156-9.74707-.04883-6.44239-10.2041Zm-.833,10.66114-.27344-.43262-15.32812-.4082,9.17383,14.53027Z"/>
            <path class="b82655fc-a7bf-4e16-b155-d985e6aaa6d6" d="M700.80371,229.31348l5.71289,14.29394-12.333,32.11328,21.70118-8.67382,3.86132,9.66113-31.75195,12.69043L683.40527,277.916l13.20118-35.9043-23.75684,9.49512-3.79785-9.50293Z"/>
            <path class="b82655fc-a7bf-4e16-b155-d985e6aaa6d6" d="M729.39844,318.42871q2.04931,9.85107-.04785,14.38184-2.09913,4.53075-9.56446,6.084l-6.45508,1.34277q-7.9951,1.6626-11.5996-1.28906-3.605-2.95312-5.62793-12.67969L689.7041,295.502l33.47656-6.96386Zm-27.11133,3.98438q1.1543,5.55175,3.0459,7.05371,1.89111,1.50146,6.26465.59082l5.57422-1.15918q3.9873-.82911,5.0957-2.97656,1.21728-2.34375.10547-7.6875l-3.76856-18.11719-20.08691,4.17773Z"/>
          </g>
          <g>
            <path class="b82655fc-a7bf-4e16-b155-d985e6aaa6d6" d="M49.1792,470.0166l.8374,4.06445q1.4795,7.1836,3.3291,8.59961,1.84864,1.41651,8.12891.12207l14.22412-2.92968.56885,2.76074-14.19873,2.92578q-7.43994,1.53222-10.24414-.52246-2.80518-2.05518-4.51172-10.33984l-.8457-4.10547q-1.72193-8.35841.02-11.36817,1.74171-3.01025,9.21875-4.55078l14.19874-2.9248.56884,2.76172-14.22412,2.92968q-6.24243,1.28614-7.396,3.33887Q47.69921,462.832,49.1792,470.0166Z"/>
            <path class="b82655fc-a7bf-4e16-b155-d985e6aaa6d6" d="M78.12939,489.0459l2.06006,5.89746L64.40527,522.44824,87.03564,514.544l.92969,2.66113L62.70459,526.0293l-1.3335-3.81836L77.56152,493.8418l-.50146-1.43653-23.26172,8.126-.93018-2.66211Z"/>
            <path class="b82655fc-a7bf-4e16-b155-d985e6aaa6d6" d="M67.46631,536.28613l24.37793-11.03222,1.1626,2.56933L68.62891,538.85449Z"/>
            <path class="b82655fc-a7bf-4e16-b155-d985e6aaa6d6" d="M110.20459,560.53906l-2.42334,1.34668-6.41357-11.5459L80.40039,561.9873l-1.36963-2.46484L99.99854,547.875l-6.41407-11.5459,2.42334-1.3457Z"/>
            <path class="b82655fc-a7bf-4e16-b155-d985e6aaa6d6" d="M113.43164,565.376l13.91553,19.60449-2.26074,1.60449-12.28321-17.30469-7.18945,5.10254,11.897,16.76074-2.26074,1.6045L103.35352,575.9873l-7.84864,5.57129,12.28321,17.30469-2.26075,1.60449-13.915-19.60351Z"/>
            <path class="b82655fc-a7bf-4e16-b155-d985e6aaa6d6" d="M112.13965,608.98145l19.91357-17.87207,12.019,13.3916q4.93066,5.49316,4.82421,9.12793-.10547,3.63573-5.55664,8.52832l-1.60742,1.4414q-5.62206,5.04786-8.93506,4.87891-3.31128-.16846-8.11865-5.52441Zm27.71,12.51855,1.63672-1.46777q4.47655-4.01954,4.58008-6.53028.10547-2.51073-3.78516-6.8457l-10.40771-11.59668-15.7876,14.16895,10.8789,12.12109q3.84082,4.27881,6.00928,4.32812Q135.14137,625.72461,139.84961,621.5Z"/>
            <path class="b82655fc-a7bf-4e16-b155-d985e6aaa6d6" d="M174.27832,633.56641l19.05566,14.6582-1.69043,2.19629-16.82031-12.93848-5.376,6.98828,16.291,12.53125-1.69043,2.19727-16.29-12.53125-7.55957,9.82617-2.23437-1.71973Z"/>
            <path class="b82655fc-a7bf-4e16-b155-d985e6aaa6d6" d="M199.52832,652.51758l20.41113,12.70215-1.46484,2.35351L200.457,656.36035l-4.6582,7.48535L213.249,674.70508l-1.46484,2.35351L194.334,666.19922l-5.085,8.17187L207.2666,685.584l-1.46484,2.35352-20.41113-12.70312Z"/>
            <path class="b82655fc-a7bf-4e16-b155-d985e6aaa6d6" d="M215.07617,693.20605l11.62891-24.09765,16.20605,7.81933q6.64746,3.20947,7.93164,6.61036,1.2832,3.40283-1.90039,10l-.93847,1.94433q-3.28419,6.80713-6.41114,7.90821-3.12744,1.103-9.60937-2.0254Zm30.38867,1.05079.95508-1.9795q2.61476-5.41845,1.75684-7.78125-.85841-2.36279-6.10352-4.89453L228.04,672.83008l-9.21973,19.10547,14.66895,7.07812q5.17822,2.499,7.20215,1.71973Q242.71436,699.95411,245.46484,694.25684Z"/>
            <path class="b82655fc-a7bf-4e16-b155-d985e6aaa6d6" d="M260.585,684.834l22.63477,8.09864-.9336,2.61035-19.98047-7.14942-2.9707,8.30079,19.35253,6.9248-.93456,2.60938-19.35156-6.92383-3.24317,9.0625,19.98145,7.14941-.93457,2.60938-22.63477-8.09864Z"/>
            <path class="b82655fc-a7bf-4e16-b155-d985e6aaa6d6" d="M316.94434,708.91211a7.77031,7.77031,0,0,1-1.627,3.53809,3.43332,3.43332,0,0,1-2.11328.99511,4.2,4.2,0,0,1,2.1211,2.26172,8.13425,8.13425,0,0,1,.12988,5.10352l-1.86133,7.63086-2.95605-.72071,1.85253-7.59375q.6211-2.543-.30175-3.77832-.92286-1.23633-4.2793-2.05468l-18.08594-4.41114-2.9375,12.043-2.73926-.668,6.34082-25.99511,19.28321,4.7041q4.61279,1.125,6.32422,3.27148Q317.8042,705.38574,316.94434,708.91211Zm-26.40918-1.94727,17.03906,4.15625q3.03369.73975,4.56152.03809a3.752,3.752,0,0,0,2.02442-2.73145,3.8432,3.8432,0,0,0-.54883-3.31835,6.45667,6.45667,0,0,0-3.83106-2.08887l-17.25586-4.21Z"/>
            <path class="b82655fc-a7bf-4e16-b155-d985e6aaa6d6" d="M338.62988,705.19141l4.30371.5625,10.4336,28.35156-3.26172-.41406-2.46973-6.82032-19.0664-2.49511-4.17969,5.94433-3.13672-.417Zm1.89453,2.248-10.07128,14.3877,16.14355,2.1123Z"/>
            <path class="b82655fc-a7bf-4e16-b155-d985e6aaa6d6" d="M389.90527,708.61523l-.07812,2.77051-13.20215-.373-.67871,23.97558-2.81836-.08008.67871-23.97558-13.20312-.374.0791-2.7705Z"/>
            <path class="b82655fc-a7bf-4e16-b155-d985e6aaa6d6" d="M398.72363,734.84375l-1.08789-26.73535,2.81739-.11426,1.08789,26.73535Z"/>
            <path class="b82655fc-a7bf-4e16-b155-d985e6aaa6d6" d="M426.22363,732.7959q-8.4375.99462-11.28711-.99512-2.84911-1.99073-3.74121-9.56055l-.27051-2.29394q-.89648-7.60841,1.39063-10.22461,2.28809-2.61474,10.7627-3.61328l4.27441-.50391q8.40089-.99023,11.2334,1.02149,2.833,2.01123,3.73047,9.62011l.2705,2.29395q.8877,7.53222-1.40039,10.14746-2.28808,2.61621-10.68847,3.60547ZM439.78711,718.874l-.27148-2.30273q-.75439-6.40724-2.69922-7.73438-1.94532-1.32714-9.18262-.47461l-4.22559.49805q-7.27442.85693-8.85644,2.60059-1.58351,1.74316-.82715,8.15039l.27148,2.30273q.74561,6.33252,2.69043,7.65918,1.94385,1.32715,9.21875.46973l4.22461-.498q7.27441-.85694,8.84082-2.5791Q440.5381,725.24463,439.78711,718.874Z"/>
            <path class="b82655fc-a7bf-4e16-b155-d985e6aaa6d6" d="M447.47461,702.9082l6.084-1.41894,25.665,18.62793-5.44629-23.34473,2.7461-.64062,6.0791,26.05859-3.93848.918-26.48047-19.124-1.48144.3457,5.59765,23.99609-2.74609.64063Z"/>
            <path class="b82655fc-a7bf-4e16-b155-d985e6aaa6d6" d="M527.7666,705.95313q-7.78565,3.3999-11.08984,2.32324-3.30469-1.07812-6.35547-8.06348l-.92481-2.11719q-3.06591-7.01952-1.63574-10.1875,1.42969-3.16552,9.25-6.582l3.94336-1.72265q7.752-3.38526,11.04688-2.28321,3.29589,1.103,6.3623,8.124l.92481,2.11621q3.03514,6.95068,1.60449,10.11718-1.4297,3.167-9.18164,6.55274Zm8.93848-17.25977-.92774-2.125q-2.58252-5.91212-4.82812-6.61816t-8.92481,2.21093l-3.89941,1.70313q-6.71191,2.93115-7.7207,5.05957-1.00782,2.127,1.57422,8.04l.92773,2.124q2.55322,5.84326,4.79785,6.54883,2.2456.70605,8.959-2.22656l3.89843-1.70313q6.71191-2.93115,7.71192-5.0332Q539.27245,694.57178,536.70508,688.69336Z"/>
            <path class="b82655fc-a7bf-4e16-b155-d985e6aaa6d6" d="M539.418,671.041l20.874-11.92579,1.375,2.40625-18.42578,10.52735,4.373,7.65527,17.84668-10.19629,1.375,2.40723-17.84571,10.19629,6.14942,10.76367-2.44824,1.39941Z"/>
            <path class="b82655fc-a7bf-4e16-b155-d985e6aaa6d6" d="M610.93848,629.54688l.9873,1.1875a6.12248,6.12248,0,0,1,1.5586,5.35546q-.58742,2.773-4.18165,5.7627L597.209,651.91113l7.33594,8.82129-2.31054,1.9209L585.124,642.082l14.4043-11.98047q3.56542-2.96631,6.42676-3.03613A6.11663,6.11663,0,0,1,610.93848,629.54688ZM589.207,642.292l6.22852,7.48828,11.98047-9.96386q2.68066-2.231,3.08105-3.89551a3.71914,3.71914,0,0,0-.98437-3.33008l-.83985-1.00977a3.69791,3.69791,0,0,0-2.97168-1.60058q-1.80468.09375-4.51465,2.34668Z"/>
            <path class="b82655fc-a7bf-4e16-b155-d985e6aaa6d6" d="M611.56348,619.418l1.96875-2.01953,17.17285,16.74511,14.19336-14.55664,1.98437,1.93555-16.16113,16.5752Z"/>
            <path class="b82655fc-a7bf-4e16-b155-d985e6aaa6d6" d="M639.8252,588.21484l2.67675-3.417,29.71289,5.46094-2.01757,2.59668-7.12793-1.34863-11.85743,15.13671,2.98633,6.625-1.957,2.48731Zm2.90039-.48535,7.25195,15.99512,10.04-12.81641Z"/>
            <path class="b82655fc-a7bf-4e16-b155-d985e6aaa6d6" d="M653.99707,569.49023l3.22852-5.34863,31.25195-5.38379-20.52149-12.38965,1.457-2.41406,22.90722,13.83008-2.09082,3.46191-32.17676,5.62207-.78613,1.30274,21.09375,12.73437-1.457,2.41407Z"/>
            <path class="b82655fc-a7bf-4e16-b155-d985e6aaa6d6" d="M672.52344,537.67773l9.92871-21.8955,2.52539,1.1455-8.76465,19.32618,8.0293,3.6416,8.48828-18.71875,2.52441,1.14551L686.7666,541.04l8.76563,3.97559,8.76465-19.32715,2.52441,1.1455-9.92871,21.89454Z"/>
            <path class="b82655fc-a7bf-4e16-b155-d985e6aaa6d6" d="M693.69336,482.49316l2.63867.84961-4.05078,12.57129,22.83008,7.35645-.86524,2.68359-22.8291-7.35644L687.36621,511.169l-2.63867-.85059Z"/>
            <path class="b82655fc-a7bf-4e16-b155-d985e6aaa6d6" d="M696.6123,469.10938l2.59864-13.93165q1.6875-9.04394,9.14355-7.65332l-.5166,2.77149a4.148,4.148,0,0,0-3.74414.81152q-1.56592,1.40625-2.2666,5.16211l-2.51074,13.458q-.57129,3.063.31347,4.43652a4.48525,4.48525,0,0,0,3.0791,1.63086q2.50782.46875,3.63965-.84961,1.13087-1.31689,2.0625-6.31347l1.72071-8.1709q1.34033-7.18506,3.4541-9.48926,2.11377-2.30274,6.23926-1.53418,4.0869.76318,5.375,3.09766,1.28905,2.335.41015,7.03906L723.05859,473.251a10.04965,10.04965,0,0,1-3.04882,6.05468A6.91177,6.91177,0,0,1,713.9834,480.54l.51758-2.77149a4.19194,4.19194,0,0,0,3.74707-.77246q1.54833-1.37256,2.25586-5.165l2.35449-12.61914a8.18737,8.18737,0,0,0-.18555-4.88378q-.791-1.6377-3.44043-2.13282-2.61181-.48779-3.81933.94824-1.40625,1.6626-2.41309,7.05958l-1.96289,9.25781q-1.16309,6.2373-3.24805,8.14941-1.80175,1.66553-5.63574.94922-3.68115-.687-4.999-2.98926Q695.83741,473.26759,696.6123,469.10938Z"/>
          </g>
        </g>
        <path class="f7dd8f23-6f1e-4d0c-9504-47f5b595cb48" d="M385,87.07892C220.46277,87.07892,87.07892,220.46271,87.07892,385S220.46277,682.921,385,682.921,682.92108,549.53723,682.92108,385,549.53723,87.07892,385,87.07892Zm0,572.52893c-151.66174,0-274.60791-122.94611-274.60791-274.60785S233.33826,110.39209,385,110.39209,659.60791,233.33826,659.60791,385,536.66174,659.60785,385,659.60785Z"/>
        <circle class="b82655fc-a7bf-4e16-b155-d985e6aaa6d6" cx="385" cy="385" r="265"/>
        <g id="e0c5626a-76d0-43bd-a4d6-6da865c02d8a" data-name="Stars">
          <path class="b41e4fd8-448d-4ea6-9d8a-15259a935c64" d="M598.75263,417a32.5,32.5,0,0,0-32.5-32.5,32.5,32.5,0,0,0,32.5-32.5,32.5,32.5,0,0,0,32.5,32.5A32.5,32.5,0,0,0,598.75263,417Z"/>
          <path class="b41e4fd8-448d-4ea6-9d8a-15259a935c64" d="M385,630.84679a32.5,32.5,0,0,0-32.5-32.5,32.5,32.5,0,0,0,32.5-32.5,32.5,32.5,0,0,0,32.5,32.5A32.5,32.5,0,0,0,385,630.84679Z"/>
          <path class="b41e4fd8-448d-4ea6-9d8a-15259a935c64" d="M206.07489,290.2889a30,30,0,0,0-30-30,30,30,0,0,0,30-30,30,30,0,0,0,30,30A30,30,0,0,0,206.07489,290.2889Z"/>
          <path class="b41e4fd8-448d-4ea6-9d8a-15259a935c64" d="M521.96963,236.56258a20,20,0,0,0-20-20,20,20,0,0,0,20-20,20,20,0,0,0,20,20A20,20,0,0,0,521.96963,236.56258Z"/>
        </g>
        <g id="b3b1b6f1-0789-43aa-93d0-6266d258b259" data-name="StarfleetInsignia">
          <path id="e20fcdd7-f573-40cc-8b28-d88e4f693c7e" data-name="StarfleetBottom(Comp)" class="b41e4fd8-448d-4ea6-9d8a-15259a935c64" d="M509.8446,342.713c-2.82757,2.55676-5.73486,5.17334-8.68182,7.81952a975.51331,975.51331,0,0,1,34.332,180.0412s-51.49219-93.09021-77.30517-100.92633v-41.123q-28.06458,24.4519-61.7685,52.87042c-55.20538,46.18775-116.00183,81.53547-163.16034,96.06354A1097.85882,1097.85882,0,0,0,226.29553,649.41a1.966,1.966,0,0,0,3.5503,1.18384C253.71,618.06421,390.90991,434.94037,451.621,440.00525c28.29474,8.58948,97.26319,134.46313,97.26319,134.46313C548.88422,512.63953,535.25189,428.79956,509.8446,342.713Z"/>
          <path id="ff4fd6d3-b9d8-4f98-99f8-7bc6432adf7b" data-name="StarfleetTop(Comp)" class="b41e4fd8-448d-4ea6-9d8a-15259a935c64" d="M458.18964,231.48505a992.93,992.93,0,0,1,38.63305,104.49218l9.02515-6.49945C478.68921,241.34418,439.42462,152.182,389.83936,82.49854a5.92537,5.92537,0,0,0-9.66309.00921c-72.35669,102.61536-122.93311,276.0094-144.10138,423.5268L374.821,423.83685l83.36854-60.038ZM383.66315,372.3h-.50525l-26.02106,21.47369,2.27368-39.91583-26.77893-22.48419h28.29474l22.48419-212.46314,22.48419,212.46314h28.29474l-26.77893,22.48419,2.27368,39.91583Z"/>
        </g>
        <path id="f2588cde-0239-47d8-a184-f32f58dfe6ce" data-name="RedHalo" class="f36bea4f-822c-4dc6-bf4f-24e0d8384596" d="M632.50526,222.74211s-52.54737,55.07368-231.41052,189.47368C293.22627,493.2695,189.90858,537.1952,160.01823,501.41531,133.52506,469.702,177.42415,388.21967,259.8481,309.87308c0,0-81.77111,99.81776-78.61141,143.02909a16.44418,16.44418,0,0,0,14.21847,15.06713C318.26533,484.48361,632.50526,222.74211,632.50526,222.74211Z"/>
        <g id="b8a7b01d-787a-4c2e-a7ce-cc85a0269a5b" data-name="Ring">
          <path id="b49277a0-95a4-4bad-80c5-3dbfb98dfa5c" data-name="UpperRightSector" class="b41e4fd8-448d-4ea6-9d8a-15259a935c64" d="M444.44122,174.50409q2.12412,4.24778,4.21131,8.532,9.50006,2.99368,18.75055,6.89258a212.63837,212.63837,0,0,1,98.65747,85.29584q2.83813-2.16221,5.57739-4.26154A219.17565,219.17565,0,0,0,444.44122,174.50409Z"/>
          <path id="b3978e94-624b-404f-8061-9672e6db4b9f" data-name="UpperLeftSector" class="b41e4fd8-448d-4ea6-9d8a-15259a935c64" d="M325.31665,181.82471q1.85669-4.17674,3.74439-8.2948C235.37628,198.24664,166.29474,283.54944,166.29474,385a220.07143,220.07143,0,0,0,3.19543,37.38367q2.59883-4.895,5.56568-9.9419A214.3889,214.3889,0,0,1,173.29474,385,211.65426,211.65426,0,0,1,325.31665,181.82471Z"/>
          <g id="b9a59adf-b127-4a30-a702-2bc61bb4e1e0" data-name="LowerSector">
            <path class="b41e4fd8-448d-4ea6-9d8a-15259a935c64" d="M596.70526,385A210.8329,210.8329,0,0,1,546.1604,522.28259q.4693,4.8609.86145,9.62085a218.80145,218.80145,0,0,0,27.34338-256.38763q-2.632,2.231-5.42443,4.5802A210.90462,210.90462,0,0,1,596.70526,385Z"/>
            <path class="b41e4fd8-448d-4ea6-9d8a-15259a935c64" d="M529.09973,540.07837a211.92,211.92,0,0,1-226.50281,39.99292q-6.57431-2.78073-12.90722-5.98572-2.30484,2.77295-4.55994,5.51172a218.76728,218.76728,0,0,0,247.61853-33.35547Q530.9914,543.256,529.09973,540.07837Z"/>
          </g>
        </g>
      </g>
    </g>
  </g>
</svg>
